<svg width="26px" height="26px" viewBox="0 0 26 26" version="1.1" xmlns="http://www.w3.org/2000/svg" xmlns:xlink="http://www.w3.org/1999/xlink">
    <g id="Page-1" stroke="none" stroke-width="1" fill="none" fill-rule="evenodd">
        <g id="Desktop" transform="translate(-525.000000, -914.000000)" fill="#FFFFFF">
            <g id="Наши-услуги" transform="translate(50.000000, 826.000000)">
                <g id="Ремонт-бензоинструмент" transform="translate(0.000000, 73.000000)">
                    <g id="repair-icon" transform="translate(475.000000, 15.000000)">
                        <g id="Group">
                            <path d="M5.69893585,24.4583265 L17.4983969,12.5564396 C19.0003207,12.9070638 20.632408,12.7080884 22.0727817,11.8689311 C24.1337018,10.6689717 25.2638024,8.47260845 25.2204146,6.231463 C25.215874,6.00297201 24.969169,5.86150097 24.7729149,5.97600091 L21.5031909,7.8802621 L18.9195993,6.36021181 L18.906482,3.34352011 L22.1762061,1.43925892 C22.3724602,1.32475898 22.3749827,1.03876358 22.1807467,0.920701421 C20.2636118,-0.247197948 17.7894987,-0.350502336 15.718993,0.878972555 C13.3281239,2.29877179 12.1919692,5.15211025 12.783254,7.78713549 L0.977738818,19.6951291 C-0.325912939,21.0100972 -0.325912939,23.1423405 0.977738818,24.4578176 C2.28139057,25.7732947 4.39477959,25.7732947 5.69893585,24.4583265 L5.69893585,24.4583265 Z" id="Shape"></path>
                        </g>
                    </g>
                </g>
            </g>
        </g>
    </g>
</svg>
